<svg width="512" height="321" viewBox="0 0 512 321" fill="none" xmlns="http://www.w3.org/2000/svg">
  <path d="M491.797 253.094L266.656 134.156V119.14C266.75 119.117 266.844 119.085 266.953 119.062C302.422 110.281 326.234 88.187 326.234 59.781C326.234 27.039 299.687 0.5 266.953 0.5C236.719 0.5 210.437 22.625 207.844 52.273C207.766 52.726 207.719 53.195 207.719 53.664C207.719 53.719 207.703 53.773 207.703 53.836C207.703 59.727 212.484 64.5 218.375 64.5C224.266 64.5 229.047 59.727 229.047 53.836H229.109C229.968 44.609 234.453 37.992 238.39 33.867C245.671 26.219 256.093 21.836 266.952 21.836C287.874 21.836 304.89 38.859 304.89 59.781C304.89 67.765 301.562 75.086 294.968 81.539C287.265 89.078 275.812 94.891 261.827 98.351C261.827 98.351 245.624 103.351 245.343 103.453V107.164H245.327V134.156L20.219 253.094C8.141 259.312 0 271 0 284.406C0 304.344 18.016 320.5 40.234 320.5C40.64 320.5 41.437 320.5 41.437 320.5H470.578C470.578 320.5 471.375 320.5 471.781 320.5C494 320.5 512 304.344 512 284.406C512 271 503.875 259.312 491.797 253.094ZM471.781 299.156H470.578H41.438H40.235C30.001 299.156 21.344 292.406 21.344 284.406C21.344 279.468 24.578 274.844 30 272.031L30.094 272L30.188 271.938L255.985 152.649L481.829 271.938L481.923 272L482.017 272.031C487.439 274.843 490.673 279.469 490.673 284.406C490.672 292.406 482.016 299.156 471.781 299.156Z" fill="black"/>
</svg>